#!OML:ASF F:\VICON\USERDATA\INSTALL\rory3\rory3.ASF
:FULLY-SPECIFIED
:DEGREES
2899
root 0.256205 14.2645 -11.2473 -543.036 -24.3772 535.689
lowerback 19.9983 -1.37571 -10.8056
upperback -0.647849 -4.3037 1.68915
thorax -11.0792 -1.37837 9.3287
lowerneck -12.3488 -6.73785 -5.36402
upperneck 18.5815 -9.78376 4.98713
head 8.31356 -4.73207 1.42502
rclavicle 1.7344e-014 -1.43125e-014
rhumerus 47.5917 55.6927 -35.7989
rradius 99.1385
rwrist 9.24256
rhand -1.61627 27.1867
rfingers 7.12502
rthumb 24.0414 -1.3275
lclavicle 1.7344e-014 -1.43125e-014
lhumerus -14.2384 -64.2031 91.6482
lradius 57.9932
lwrist 82.1194
lhand 5.00323 30.846
lfingers 7.12502
lthumb 30.3731 58.3651
rfemur -46.4942 -8.30492 5.8871
rtibia 51.7393
rfoot 3.83666 -6.54567
rtoes -15.9436
lfemur -23.8342 42.8698 -32.0053
ltibia 64.7925
lfoot -42.6234 14.0326
ltoes 10.367
2900
root 0.261971 14.2654 -11.2542 -542.944 -24.4089 535.577
lowerback 20.0793 -1.3855 -10.8443
upperback -0.658763 -4.3389 1.66935
thorax -11.1287 -1.38879 9.34491
lowerneck -12.6383 -6.72261 -5.37689
upperneck 18.8191 -9.74601 4.90411
head 8.43978 -4.71467 1.391
rclavicle -5.31749e-014 -1.78906e-014
rhumerus 47.7961 55.6681 -35.5087
rradius 99.3335
rwrist 9.36718
rhand -1.6285 27.0974
rfingers 7.12502
rthumb 24.0297 -1.41833
lclavicle -5.31749e-014 -1.78906e-014
lhumerus -14.0705 -64.0387 91.4748
lradius 58.099
lwrist 82.2344
lhand 4.85455 31.0854
lfingers 7.12502
lthumb 30.2312 58.6305
rfemur -46.592 -8.50217 5.85473
rtibia 51.8259
rfoot 3.75913 -6.44476
rtoes -15.3886
lfemur -23.8582 42.8314 -32.1048
ltibia 64.8481
lfoot -42.6722 14.095
ltoes 10.2003
2901
root 0.270592 14.2668 -11.2637 -542.975 -24.5248 535.75
lowerback 20.0562 -1.4443 -10.6922
upperback -0.613904 -4.37071 1.72322
thorax -11.0618 -1.4191 9.32279
lowerneck -12.7046 -6.71191 -5.3353
upperneck 18.8267 -9.72808 4.87798
head 8.44979 -4.70314 1.37573
rclavicle 1.52319e-014 1.23246e-014
rhumerus 48.0227 55.5221 -35.2853
rradius 99.4942
rwrist 9.53258
rhand -1.57222 27.0376
rfingers 7.12502
rthumb 24.0836 -1.47102
lclavicle 1.52319e-014 1.23246e-014
lhumerus -13.8096 -63.981 91.2117
lradius 58.1526
lwrist 82.4342
lhand 4.78928 30.9514
lfingers 7.12502
lthumb 30.169 58.508
rfemur -46.6287 -8.71004 6.09386
rtibia 51.9264
rfoot 3.66924 -6.34606
rtoes -15.2327
lfemur -23.9632 42.6948 -31.9152
ltibia 64.9752
lfoot -42.6194 14.3148
ltoes 9.57038
2902
root 0.286418 14.2614 -11.2765 -543.024 -24.5248 535.822
lowerback 19.9984 -1.41053 -10.745
upperback -0.487991 -4.32655 1.76449
thorax -10.8877 -1.41639 9.37737
lowerneck -12.6734 -6.71185 -5.32025
upperneck 18.588 -9.70742 4.92438
head 8.36445 -4.68458 1.39615
rclavicle 3.34952e-014 4.37326e-015
rhumerus 48.1889 55.3086 -35.1664
rradius 99.5394
rwrist 9.83256
rhand -1.6979 26.985
rfingers 7.12502
rthumb 23.9631 -1.53953
lclavicle 3.34952e-014 4.37326e-015
lhumerus -13.3665 -63.8548 90.7865
lradius 58.1972
lwrist 82.4771
lhand 4.88578 31.001
lfingers 7.12502
lthumb 30.261 58.5407
rfemur -46.701 -8.46279 6.1333
rtibia 52.0836
rfoot 3.28449 -6.58611
rtoes -12.2086
lfemur -24.0428 42.6914 -31.7516
ltibia 65.0781
lfoot -42.411 14.8107
ltoes 8.32124
2903
root 0.295177 14.2571 -11.2921 -542.954 -24.636 535.689
lowerback 19.9246 -1.41155 -10.8369
upperback -0.44108 -4.34643 1.71218
thorax -10.7857 -1.43385 9.36634
lowerneck -12.4398 -6.7314 -5.43191
upperneck 18.3047 -9.73457 5.11369
head 8.2448 -4.69185 1.48486
rclavicle 2.5842e-015 1.47101e-014
rhumerus 48.0305 55.2269 -35.3301
rradius 99.5639
rwrist 10.1926
rhand -1.77657 26.8601
rfingers 7.12502
rthumb 23.8877 -1.67425
lclavicle 2.5842e-015 1.47101e-014
lhumerus -13.2833 -63.7716 90.6711
lradius 58.2745
lwrist 82.4239
lhand 4.95047 31.1895
lfingers 7.12502
lthumb 30.3227 58.7178
rfemur -46.7934 -8.58067 5.98261
rtibia 52.2645
rfoot 3.00079 -6.60266
rtoes -9.35115
lfemur -24.0291 42.5812 -31.8411
ltibia 65.1021
lfoot -42.2826 15.2499
ltoes 7.26383
2904
root 0.298719 14.256 -11.3111 -542.832 -24.7585 535.431
lowerback 19.8729 -1.43768 -11.0366
upperback -0.48102 -4.43158 1.62913
thorax -10.7759 -1.46382 9.4054
lowerneck -12.3902 -6.72675 -5.39167
upperneck 18.4045 -9.74726 5.06824
head 8.26547 -4.70338 1.46207
rclavicle 3.8117e-014 7.15625e-015
rhumerus 47.7578 55.3536 -35.563
rradius 99.6993
rwrist 10.501
rhand -1.66544 26.9781
rfingers 7.12502
rthumb 23.9942 -1.54235
lclavicle 3.8117e-014 7.15625e-015
lhumerus -13.6321 -63.5682 90.9593
lradius 58.296
lwrist 82.3485
lhand 4.88261 31.1937
lfingers 7.12502
lthumb 30.258 58.734
rfemur -46.8453 -8.95958 5.79538
rtibia 52.4436
rfoot 2.95311 -6.27218
rtoes -9.53747
lfemur -23.9375 42.511 -32.0278
ltibia 65.094
lfoot -42.1043 15.8098
ltoes 5.72373
2905
root 0.310166 14.2598 -11.3309 -542.868 -24.777 535.627
lowerback 19.7642 -1.44603 -10.9255
upperback -0.509999 -4.39701 1.66979
thorax -10.7596 -1.45133 9.37131
lowerneck -12.3608 -6.74243 -5.3817
upperneck 18.5098 -9.7827 5.03424
head 8.29511 -4.72562 1.44431
rclavicle 3.12589e-014 -7.55382e-015
rhumerus 47.5626 55.4247 -35.6689
rradius 99.8943
rwrist 10.6886
rhand -1.42307 26.9801
rfingers 7.12502
rthumb 24.2266 -1.50953
lclavicle 3.12589e-014 -7.55382e-015
lhumerus -14.1041 -63.3762 91.4059
lradius 58.3174
lwrist 82.2815
lhand 4.73112 31.0216
lfingers 7.12502
lthumb 30.1135 58.5883
rfemur -46.8806 -8.86557 6.04758
rtibia 52.5616
rfoot 2.75181 -6.35651
rtoes -9.60401
lfemur -23.9736 42.6132 -31.6901
ltibia 65.2018
lfoot -42.0952 15.5741
ltoes 5.7739
2906
root 0.325446 14.262 -11.345 -542.951 -24.7775 535.932
lowerback 19.8115 -1.43807 -10.6966
upperback -0.574365 -4.33012 1.73711
thorax -10.8853 -1.41561 9.30729
lowerneck -12.1417 -6.74374 -5.38572
upperneck 18.4641 -9.79928 5.03563
head 8.24148 -4.74166 1.45145
rclavicle -1.39149e-015 -7.55382e-015
rhumerus 47.2344 55.4613 -35.9075
rradius 99.9961
rwrist 10.8892
rhand -1.25942 26.9923
rfingers 7.12502
rthumb 24.3835 -1.47625
lclavicle -1.39149e-015 -7.55382e-015
lhumerus -14.6859 -63.1634 91.9087
lradius 58.3819
lwrist 82.1217
lhand 4.66029 30.8835
lfingers 7.12502
lthumb 30.0459 58.4624
rfemur -46.9218 -8.69895 6.42022
rtibia 52.6588
rfoot 2.4957 -6.48418
rtoes -9.4354
lfemur -24.0703 42.5826 -31.2531
ltibia 65.3693
lfoot -42.2624 14.8283
ltoes 7.2619
2907
root 0.330813 14.2623 -11.3571 -542.842 -24.7747 535.877
lowerback 19.881 -1.44162 -10.6304
upperback -0.687603 -4.3334 1.68988
thorax -11.0624 -1.40089 9.22799
lowerneck -12.2712 -6.74381 -5.4175
upperneck 18.7375 -9.8116 4.99273
head 8.35653 -4.75312 1.43215
rclavicle 3.3694e-014 -3.29983e-014
rhumerus 46.8282 55.583 -36.3194
rradius 99.9735
rwrist 11.2079
rhand -1.29789 27.0613
rfingers 7.12502
rthumb 24.3467 -1.41227
lclavicle 3.3694e-014 -3.29983e-014
lhumerus -15.0417 -63.0027 92.143
lradius 58.4269
lwrist 82.1905
lhand 4.75425 30.6734
lfingers 7.12502
lthumb 30.1355 58.2361
rfemur -47.0713 -8.84089 6.44205
rtibia 52.7956
rfoot 2.25622 -6.41772
rtoes -8.39496
lfemur -24.1551 42.5462 -31.2773
ltibia 65.4421
lfoot -42.3816 14.3863
ltoes 8.2707
2908
root 0.334211 14.2592 -11.3696 -542.677 -24.8551 535.677
lowerback 19.9531 -1.45043 -10.671
upperback -0.738645 -4.37381 1.60834
thorax -11.157 -1.40969 9.17718
lowerneck -12.705 -6.76174 -5.26213
upperneck 19.1104 -9.8218 4.73536
head 8.53927 -4.75989 1.30087
rclavicle 3.25013e-014 4.01545e-014
rhumerus 46.7493 55.5974 -36.3284
rradius 100.094
rwrist 11.477
rhand -1.47251 27.0901
rfingers 7.12502
rthumb 24.1792 -1.40581
lclavicle 3.25013e-014 4.01545e-014
lhumerus -14.8229 -62.9605 91.9178
lradius 58.4533
lwrist 82.302
lhand 4.79008 30.6736
lfingers 7.12502
lthumb 30.1697 58.23
rfemur -47.2568 -9.26373 6.3544
rtibia 52.9967
rfoot 2.21307 -6.11011
rtoes -9.01662
lfemur -24.2067 42.4201 -31.5063
ltibia 65.433
lfoot -42.4505 14.4227
ltoes 8.36331
2909
root 0.339691 14.2559 -11.3869 -542.654 -25.0106 535.566
lowerback 19.9522 -1.46558 -10.6838
upperback -0.652516 -4.4014 1.56825
thorax -11.0536 -1.43756 9.14084
lowerneck -13.0289 -6.79606 -5.28619
upperneck 19.2557 -9.85351 4.74016
head 8.65056 -4.76485 1.28899
rclavicle -3.01656e-014 -1.47101e-014
rhumerus 46.8774 55.3627 -36.1267
rradius 100.299
rwrist 11.5646
rhand -1.38004 27.181
rfingers 7.12502
rthumb 24.2679 -1.30307
lclavicle -3.01656e-014 -1.47101e-014
lhumerus -14.2895 -63.0276 91.4256
lradius 58.551
lwrist 82.4719
lhand 4.71455 30.7524
lfingers 7.12502
lthumb 30.0977 58.3219
rfemur -47.2792 -9.59631 6.29732
rtibia 53.2164
rfoot 2.08689 -5.84973
rtoes -9.86327
lfemur -24.0319 42.2816 -31.508
ltibia 65.3733
lfoot -42.3575 14.5234
ltoes 8.03713
2910
root 0.347272 14.255 -11.4077 -542.544 -25.0955 535.273
lowerback 19.8141 -1.43542 -10.9925
upperback -0.528847 -4.42472 1.50433
thorax -10.8127 -1.46105 9.23255
lowerneck -13.1735 -6.78328 -5.17368
upperneck 19.1803 -9.81545 4.66763
head 8.63935 -4.73834 1.24854
rclavicle -5.69518e-014 0
rhumerus 47.0095 55.1242 -36.0342
rradius 100.391
rwrist 11.5654
rhand -1.26607 27.2281
rfingers 7.12502
rthumb 24.3772 -1.24132
lclavicle -5.69518e-014 0
lhumerus -13.8557 -63.023 91.0068
lradius 58.612
lwrist 82.6104
lhand 4.56792 30.757
lfingers 7.12502
lthumb 29.9578 58.3519
rfemur -47.3177 -9.71361 6.03915
rtibia 53.4172
rfoot 1.93758 -5.74781
rtoes -9.82507
lfemur -23.831 42.1761 -31.6488
ltibia 65.2833
lfoot -42.3004 14.4297
ltoes 8.02447
2911
root 0.35768 14.2561 -11.4359 -542.553 -25.1133 535.237
lowerback 19.526 -1.39421 -11.1619
upperback -0.353751 -4.36749 1.53693
thorax -10.4485 -1.46487 9.31883
lowerneck -13.2761 -6.77754 -5.08865
upperneck 19.0425 -9.76869 4.56666
head 8.59887 -4.71251 1.20674
rclavicle 4.77083e-014 0
rhumerus 47.0814 54.9238 -35.9834
rradius 100.418
rwrist 11.6717
rhand -1.18117 27.2453
rfingers 7.12502
rthumb 24.4585 -1.21319
lclavicle 4.77083e-014 0
lhumerus -13.4033 -62.9615 90.6435
lradius 58.6236
lwrist 82.6884
lhand 4.66336 30.6105
lfingers 7.12502
lthumb 30.0488 58.1889
rfemur -47.3045 -9.68361 6.04981
rtibia 53.5815
rfoot 1.75527 -5.77536
rtoes -8.9706
lfemur -23.6481 42.2565 -31.4531
ltibia 65.2448
lfoot -42.1223 14.7235
ltoes 7.03325
